<?xml version="1.0" encoding="UTF-8" standalone="no"?>
<!-- Created with Inkscape (http://www.inkscape.org/) -->

<svg
   width="100mm"
   height="100mm"
   viewBox="0 0 100 100"
   version="1.1"
   id="svg1"
   inkscape:version="1.4.3 (0d15f75, 2025-12-25)"
   sodipodi:docname="comma.svg"
   xmlns:inkscape="http://www.inkscape.org/namespaces/inkscape"
   xmlns:sodipodi="http://sodipodi.sourceforge.net/DTD/sodipodi-0.dtd"
   xmlns="http://www.w3.org/2000/svg"
   xmlns:svg="http://www.w3.org/2000/svg">
  <sodipodi:namedview
     id="namedview1"
     pagecolor="#ffffff"
     bordercolor="#000000"
     borderopacity="1"
     inkscape:showpageshadow="true"
     inkscape:pageopacity="0.0"
     inkscape:pagecheckerboard="true"
     inkscape:deskcolor="#d1d1d1"
     inkscape:document-units="mm"
     showborder="true"
     inkscape:zoom="3.3015011"
     inkscape:cx="282.44728"
     inkscape:cy="167.34812"
     inkscape:window-width="3840"
     inkscape:window-height="2071"
     inkscape:window-x="-9"
     inkscape:window-y="-9"
     inkscape:window-maximized="1"
     inkscape:current-layer="layer1" />
  <defs
     id="defs1" />
  <g
     inkscape:label="Layer 1"
     inkscape:groupmode="layer"
     id="layer1">
    <path
       style="font-size:375.61px;line-height:1.25;font-family:'Bell MT';-inkscape-font-specification:'Bell MT';letter-spacing:0px;word-spacing:0px;opacity:0.99;fill:#ffffff;stroke:#000000;stroke-width:1.0716;stroke-linecap:round;stroke-linejoin:round;stroke-dasharray:none"
       d="M 70.944739,12.697923 Q 80.325021,16.754415 84.673745,28.484772 89.022469,40.21513 84.341901,51.038531 77.711096,66.371682 61.207584,78.291892 44.62606,90.39249 29.468293,93.259036 14.310525,96.125581 11.604675,94.955439 8.5380444,93.629278 10.176244,89.841087 q 0.624075,-1.443119 5.34838,-1.969601 10.506576,-1.023695 23.953142,-9.341 13.446564,-8.317306 18.6732,-20.403436 2.88635,-6.674432 -3.734442,-10.179961 -10.433353,-5.582519 -12.24204,-12.788437 -1.808686,-7.205917 0.453589,-12.437228 3.120378,-7.2156 10.847992,-10.725807 7.727613,-3.510206 17.468674,0.702306 z"
       id="text1"
       aria-label="," />
  </g>
</svg>
