<?xml version="1.0" encoding="UTF-8" standalone="no"?>
<!-- Created with Inkscape (http://www.inkscape.org/) -->

<svg
   width="100mm"
   height="100mm"
   viewBox="0 0 100 100"
   version="1.1"
   id="svg1"
   inkscape:version="1.4.3 (0d15f75, 2025-12-25)"
   sodipodi:docname="comma-3.svg"
   xmlns:inkscape="http://www.inkscape.org/namespaces/inkscape"
   xmlns:sodipodi="http://sodipodi.sourceforge.net/DTD/sodipodi-0.dtd"
   xmlns:xlink="http://www.w3.org/1999/xlink"
   xmlns="http://www.w3.org/2000/svg"
   xmlns:svg="http://www.w3.org/2000/svg">
  <sodipodi:namedview
     id="namedview1"
     pagecolor="#ffffff"
     bordercolor="#000000"
     borderopacity="1"
     inkscape:showpageshadow="true"
     inkscape:pageopacity="0.0"
     inkscape:pagecheckerboard="true"
     inkscape:deskcolor="#d1d1d1"
     inkscape:document-units="mm"
     showborder="true"
     inkscape:zoom="3.3015011"
     inkscape:cx="178.1008"
     inkscape:cy="167.34812"
     inkscape:window-width="2109"
     inkscape:window-height="1707"
     inkscape:window-x="1083"
     inkscape:window-y="228"
     inkscape:window-maximized="0"
     inkscape:current-layer="g21" />
  <defs
     id="defs1">
    <pattern
       inkscape:collect="always"
       xlink:href="#Cubes"
       preserveAspectRatio="xMidYMid"
       id="pattern3"
       patternTransform="scale(0.1)"
       x="0"
       y="0" />
    <pattern
       patternUnits="userSpaceOnUse"
       width="142"
       height="123"
       patternTransform="scale(0.4)"
       id="Cubes"
       preserveAspectRatio="none"
       style="fill:#000000"
       x="0"
       y="0"
       inkscape:label="Cubes"
       inkscape:collect="always"
       inkscape:isstock="true">
      <path
         id="path14"
         style="fill-opacity:0.6;stroke-width:2;stroke-miterlimit:10"
         d="M 0.00195313,0.001953 V 0.0039061 L 35.509766,20.503906 71.009766,0.0078124 106.50977,20.503906 142,0.0136718 V 0.001953 Z" />
      <path
         id="path16"
         style="fill-opacity:0.3;stroke-width:2;stroke-miterlimit:10"
         d="m 35.503902,61.5 0.0039,0.002 v 41 L 0,123.00195 V 81.998047 Z M 142.01171,0 l 0.004,0.002 v 41 l -35.5079,20.499953 V 20.498047 Z m -71.000002,0 0.0039,0.002 v 41 L 35.507806,61.501953 V 20.498047 Z m 35.492192,61.5 0.004,0.002 v 41 L 71,123.00195 V 81.998047 Z" />
      <path
         id="path18"
         style="fill-opacity:1;stroke-width:2;stroke-miterlimit:10"
         d="m 106.49609,61.5 -0.004,0.002 v 41 L 142,123.00195 V 81.998047 Z M 71.0039,0 71,0.002 v 41 l 35.50781,20.499953 V 20.498047 Z m -71,0 L 0,0.002 v 41 L 35.507806,61.501953 V 20.498047 Z m 35.492194,61.5 -0.0039,0.002 v 41 L 71,123.00195 V 81.998047 Z" />
      <path
         id="path20"
         style="fill-opacity:0.6;stroke-width:2;stroke-miterlimit:10"
         d="m 70.998047,41.001953 -35.5,20.496094 L 0,41.003906 v 40.998047 l 0.00195313,0.002 35.49999987,-20.496094 35.5,20.496094 L 106.50195,61.507812 142,82.001953 V 41.003906 l -0.002,-0.002 -35.5,20.496094 z" />
      <path
         id="path26"
         style="fill-opacity:0.6;stroke-width:2;stroke-miterlimit:10"
         d="M 35.505859,102.50195 0.00195313,123 v 0.002 H 142 v -0.008 l -35.49414,-20.49219 -35.500001,20.49609 z" />
    </pattern>
    <clipPath
       clipPathUnits="userSpaceOnUse"
       id="clipPath25">
      <rect
         style="fill:#ff0000;stroke:none;stroke-width:3;stroke-linecap:square;stroke-linejoin:miter;paint-order:stroke markers fill;stop-color:#000000"
         id="rect25-8"
         width="78"
         height="45.033199"
         x="763.61322"
         y="452.82422" />
    </clipPath>
    <clipPath
       clipPathUnits="userSpaceOnUse"
       id="clipPath33">
      <rect
         style="fill:#000000;stroke:none;stroke-width:0.999995;stroke-linecap:butt;stroke-linejoin:bevel;paint-order:stroke markers fill;stop-color:#000000"
         id="rect33"
         width="46.19186"
         height="80.006783"
         x="74.999985"
         y="399.99661" />
    </clipPath>
    <clipPath
       clipPathUnits="userSpaceOnUse"
       id="clipPath59">
      <rect
         style="fill:none;stroke:#000000;stroke-width:0.999999;stroke-linecap:butt;stroke-linejoin:bevel;paint-order:stroke markers fill;stop-color:#000000"
         id="rect59"
         width="44.999748"
         height="77.937294"
         x="251.53429"
         y="222.73541" />
    </clipPath>
    <clipPath
       clipPathUnits="userSpaceOnUse"
       id="clipPath58">
      <rect
         style="fill:none;stroke:#000000;stroke-linecap:butt;stroke-linejoin:bevel;paint-order:stroke markers fill;stop-color:#000000"
         id="rect58"
         width="45.034248"
         height="38.955639"
         x="262.48285"
         y="121.00073" />
    </clipPath>
    <clipPath
       clipPathUnits="userSpaceOnUse"
       id="clipPath56">
      <rect
         style="fill:none;stroke:#000000;stroke-width:0.999999;stroke-linecap:butt;stroke-linejoin:bevel;paint-order:stroke markers fill;stop-color:#000000"
         id="rect56"
         width="44.999748"
         height="77.937294"
         x="251.53429"
         y="222.73541" />
    </clipPath>
    <clipPath
       clipPathUnits="userSpaceOnUse"
       id="clipPath27">
      <rect
         style="fill:none;stroke:#000000;stroke-width:0.999999;stroke-linecap:butt;stroke-linejoin:bevel;paint-order:stroke markers fill;stop-color:#000000"
         id="rect28-6"
         width="46.160622"
         height="39.922417"
         x="86.574379"
         y="420.06253" />
    </clipPath>
    <clipPath
       clipPathUnits="userSpaceOnUse"
       id="clipPath46">
      <rect
         style="fill:none;stroke:#000000;stroke-width:0.999999;stroke-linecap:butt;stroke-linejoin:bevel;paint-order:stroke markers fill;stop-color:#000000"
         id="rect46"
         width="44.999748"
         height="77.937294"
         x="251.53429"
         y="222.73541" />
    </clipPath>
    <clipPath
       clipPathUnits="userSpaceOnUse"
       id="clipPath43">
      <rect
         style="fill:none;stroke:#000000;stroke-linecap:butt;stroke-linejoin:bevel;paint-order:stroke markers fill;stop-color:#000000"
         id="rect43"
         width="45.034248"
         height="38.955639"
         x="262.48285"
         y="121.00073" />
    </clipPath>
    <clipPath
       clipPathUnits="userSpaceOnUse"
       id="clipPath15">
      <rect
         style="fill:none;stroke:#000000;stroke-linecap:butt;stroke-linejoin:bevel;paint-order:stroke markers fill;stop-color:#000000"
         id="rect15-7"
         width="45.034248"
         height="38.955639"
         x="262.48285"
         y="121.00073" />
    </clipPath>
    <clipPath
       clipPathUnits="userSpaceOnUse"
       id="clipPath24">
      <rect
         style="fill:none;stroke:#000000;stroke-width:0.999999;stroke-linecap:butt;stroke-linejoin:bevel;paint-order:stroke markers fill;stop-color:#000000"
         id="rect24"
         width="44.999748"
         height="77.937294"
         x="251.53429"
         y="222.73541" />
    </clipPath>
    <clipPath
       clipPathUnits="userSpaceOnUse"
       id="clipPath52">
      <path
         id="path52"
         style="stroke-width:0.1;stroke-linecap:square;paint-order:markers fill stroke;stop-color:#000000"
         d="m -880.82767,-187.29769 h 1640.84 v 73.28155 h -1640.84 z" />
    </clipPath>
    <clipPath
       clipPathUnits="userSpaceOnUse"
       id="clipPath5">
      <rect
         style="fill:#000000;stroke:#000000;stroke-width:0;stroke-linejoin:bevel;paint-order:stroke markers fill;stop-color:#000000"
         id="rect5-4"
         width="20"
         height="200"
         x="530"
         y="595" />
    </clipPath>
  </defs>
  <g
     inkscape:label="Layer 1"
     inkscape:groupmode="layer"
     id="layer1"
     style="display:inline;fill:#ffffff;fill-opacity:1">
    <path
       style="font-size:375.61px;line-height:1.25;font-family:'Bell MT';-inkscape-font-specification:'Bell MT';letter-spacing:0px;word-spacing:0px;opacity:1;fill:#ffffff;stroke:#000000;stroke-width:1.0716;stroke-linecap:round;stroke-linejoin:round;stroke-dasharray:none;fill-opacity:1"
       d="M 70.944739,12.697923 Q 80.325021,16.754415 84.673745,28.484772 89.022469,40.21513 84.341901,51.038531 77.711096,66.371682 61.207584,78.291892 44.62606,90.39249 29.468293,93.259036 14.310525,96.125581 11.604675,94.955439 8.5380444,93.629278 10.176244,89.841087 q 0.624075,-1.443119 5.34838,-1.969601 10.506576,-1.023695 23.953142,-9.341 13.446564,-8.317306 18.6732,-20.403436 2.88635,-6.674432 -3.734442,-10.179961 -10.433353,-5.582519 -12.24204,-12.788437 -1.808686,-7.205917 0.453589,-12.437228 3.120378,-7.2156 10.847992,-10.725807 7.727613,-3.510206 17.468674,0.702306 z"
       id="text1"
       aria-label="," />
  </g>
  <g
     inkscape:label="Layer 1"
     inkscape:groupmode="layer"
     id="g21"
     style="display:inline;opacity:0.341">
    <path
       style="font-size:375.61px;line-height:1.25;font-family:'Bell MT';-inkscape-font-specification:'Bell MT';letter-spacing:0px;word-spacing:0px;opacity:0.49427918;fill:url(#pattern3);stroke:#000000;stroke-width:1.0716;stroke-linecap:round;stroke-linejoin:round;stroke-dasharray:none"
       d="M 70.944739,12.697923 Q 80.325021,16.754415 84.673745,28.484772 89.022469,40.21513 84.341901,51.038531 77.711096,66.371682 61.207584,78.291892 44.62606,90.39249 29.468293,93.259036 14.310525,96.125581 11.604675,94.955439 8.5380444,93.629278 10.176244,89.841087 q 0.624075,-1.443119 5.34838,-1.969601 10.506576,-1.023695 23.953142,-9.341 13.446564,-8.317306 18.6732,-20.403436 2.88635,-6.674432 -3.734442,-10.179961 -10.433353,-5.582519 -12.24204,-12.788437 -1.808686,-7.205917 0.453589,-12.437228 3.120378,-7.2156 10.847992,-10.725807 7.727613,-3.510206 17.468674,0.702306 z"
       id="path21"
       aria-label="," />
  </g>
</svg>
