<?xml version="1.0" encoding="UTF-8" standalone="no"?>
<!-- Created with Inkscape (http://www.inkscape.org/) -->

<svg
   width="100mm"
   height="100mm"
   viewBox="0 0 100 100"
   version="1.1"
   id="svg1"
   inkscape:version="1.4.3 (0d15f75, 2025-12-25)"
   sodipodi:docname="comma-4.svg"
   xmlns:inkscape="http://www.inkscape.org/namespaces/inkscape"
   xmlns:sodipodi="http://sodipodi.sourceforge.net/DTD/sodipodi-0.dtd"
   xmlns:xlink="http://www.w3.org/1999/xlink"
   xmlns="http://www.w3.org/2000/svg"
   xmlns:svg="http://www.w3.org/2000/svg">
  <sodipodi:namedview
     id="namedview1"
     pagecolor="#ffffff"
     bordercolor="#000000"
     borderopacity="1"
     inkscape:showpageshadow="true"
     inkscape:pageopacity="0.0"
     inkscape:pagecheckerboard="true"
     inkscape:deskcolor="#d1d1d1"
     inkscape:document-units="mm"
     showborder="true"
     inkscape:zoom="3.3015011"
     inkscape:cx="178.1008"
     inkscape:cy="167.34812"
     inkscape:window-width="2109"
     inkscape:window-height="1707"
     inkscape:window-x="357"
     inkscape:window-y="279"
     inkscape:window-maximized="0"
     inkscape:current-layer="g21" />
  <defs
     id="defs1">
    <pattern
       inkscape:collect="always"
       xlink:href="#DiamondPlate"
       preserveAspectRatio="xMidYMid"
       id="pattern68"
       patternTransform="matrix(0.14142136,0.14142136,-0.14142136,0.14142136,0,0)"
       x="6"
       y="0" />
    <pattern
       patternUnits="userSpaceOnUse"
       width="83"
       height="84"
       preserveAspectRatio="xMidYMid"
       id="DiamondPlate"
       inkscape:stockid="Diamond Plate"
       style="fill:#000000"
       patternTransform="matrix(0.35355339,0.35355339,-0.35355339,0.35355339,0,0)"
       x="0"
       y="0"
       inkscape:label="Diamond Plate"
       inkscape:collect="always"
       inkscape:isstock="true">
      <path
         id="rect22"
         style="fill-opacity:1;stroke:none"
         d="m 29.441406,0 c -0.485427,1.590892 -0.802734,3.4057 -0.802734,5.466797 0,5.423014 2.298575,9.285029 3.939453,11.560547 1.640878,-2.275518 3.939453,-6.137533 3.939453,-11.560547 0,-2.061091 -0.315357,-3.875908 -0.800781,-5.466797 z m 42,0 c -0.485427,1.590892 -0.802734,3.4057 -0.802734,5.466797 0,5.423014 2.298575,9.285029 3.939453,11.560547 1.640878,-2.275518 3.939453,-6.137533 3.939453,-11.560547 C 78.517578,3.405706 78.202221,1.590889 77.716797,0 Z M 11.578125,1.527344 c -5.423017,0 -9.283074,2.29858 -11.558594,3.939453 2.27552,1.640874 6.135577,3.939453 11.558594,3.939453 5.451291,0 9.197845,-2.20152 11.560547,-3.939453 C 20.77597,3.728865 17.029416,1.527344 11.578125,1.527344 Z m 42,0 c -5.423019,0 -9.283075,2.29858 -11.558594,3.939453 2.275519,1.640874 6.135575,3.939453 11.558594,3.939453 5.451291,0 9.197845,-2.20152 11.560547,-3.939453 C 62.77597,3.728865 59.029416,1.527344 53.578125,1.527344 Z m -42,13.378906 C 9.840198,17.268958 7.638672,21.0155 7.638672,26.4668 c 0,5.42301 2.298575,9.28503 3.939453,11.56054 1.640878,-2.27551 3.939453,-6.13753 3.939453,-11.56054 0,-5.4513 -2.201525,-9.197842 -3.939453,-11.56055 z m 42,0 c -1.737928,2.362708 -3.939453,6.10925 -3.939453,11.56055 0,5.42301 2.298575,9.28503 3.939453,11.56054 1.640878,-2.27551 3.939453,-6.13753 3.939453,-11.56054 0,-5.4513 -2.201525,-9.197842 -3.939453,-11.56055 z m -21,7.62109 c -5.423019,0 -9.283075,2.29858 -11.558594,3.93946 2.275519,1.64087 6.135575,3.93945 11.558594,3.93945 5.451291,0 9.197845,-2.20152 11.560547,-3.93945 -2.362702,-1.73793 -6.109256,-3.93946 -11.560547,-3.93946 z m 41,0 c -5.423015,0 -9.283076,2.29858 -11.558594,3.93946 2.275518,1.64087 6.135579,3.93945 11.558594,3.93945 4.031903,0 7.125505,-1.20476 9.421875,-2.53516 V 25.0625 C 80.70363,23.7321 77.610028,22.52734 73.578125,22.52734 Z M 0,25.0625 v 2.80859 C 0.808414,27.40274 1.523479,26.91931 2.138672,26.4668 1.523479,26.01428 0.808414,25.53085 0,25.0625 Z m 32.578125,10.84375 c -1.737928,2.36271 -3.939453,6.10925 -3.939453,11.56055 0,5.42301 2.298575,9.28503 3.939453,11.56054 1.640878,-2.27551 3.939453,-6.13753 3.939453,-11.56054 0,-5.4513 -2.201525,-9.19784 -3.939453,-11.56055 z m 42,0 c -1.737928,2.36271 -3.939453,6.10925 -3.939453,11.56055 0,5.42301 2.298575,9.28503 3.939453,11.56054 1.640878,-2.27551 3.939453,-6.13753 3.939453,-11.56054 0,-5.4513 -2.201525,-9.19784 -3.939453,-11.56055 z m -63,7.62109 c -5.423018,0 -9.283075,2.29858 -11.558594,3.93946 2.275519,1.64087 6.135576,3.93945 11.558594,3.93945 5.451291,0 9.197845,-2.20152 11.560547,-3.93945 -2.362702,-1.73793 -6.109256,-3.93946 -11.560547,-3.93946 z m 42,0 c -5.423019,0 -9.283075,2.29858 -11.558594,3.93946 2.275519,1.64087 6.135575,3.93945 11.558594,3.93945 5.451291,0 9.197845,-2.20152 11.560547,-3.93945 -2.362702,-1.73793 -6.109256,-3.93946 -11.560547,-3.93946 z m -42,13.37891 C 9.840198,59.26896 7.638672,63.0155 7.638672,68.4668 c 0,5.42301 2.298575,9.28503 3.939453,11.56054 1.640878,-2.27551 3.939453,-6.13753 3.939453,-11.56054 0,-5.4513 -2.201525,-9.19784 -3.939453,-11.56055 z m 42,0 c -1.737928,2.36271 -3.939453,6.10925 -3.939453,11.56055 0,5.42301 2.298575,9.28503 3.939453,11.56054 1.640878,-2.27551 3.939453,-6.13753 3.939453,-11.56054 0,-5.4513 -2.201525,-9.19784 -3.939453,-11.56055 z m -21,7.62109 c -5.423019,0 -9.283075,2.29858 -11.558594,3.93946 2.275519,1.64087 6.135575,3.93945 11.558594,3.93945 5.451291,0 9.197845,-2.20152 11.560547,-3.93945 -2.362702,-1.73793 -6.109256,-3.93946 -11.560547,-3.93946 z m 41,0 c -5.423015,0 -9.283076,2.29858 -11.558594,3.93946 2.275518,1.64087 6.135579,3.93945 11.558594,3.93945 4.031903,0 7.125505,-1.20476 9.421875,-2.53516 V 67.0625 C 80.70363,65.7321 77.610028,64.52734 73.578125,64.52734 Z M 0,67.0625 v 2.80859 C 0.808414,69.40274 1.523479,68.91931 2.138672,68.4668 1.523479,68.01428 0.808414,67.53085 0,67.0625 Z M 32.578125,77.90625 C 31.497295,79.37563 30.239861,81.38322 29.441406,84 h 6.275391 c -0.798455,-2.61679 -2.05784,-4.62436 -3.138672,-6.09375 z m 42,0 C 73.497295,79.37563 72.239861,81.38322 71.441406,84 h 6.275391 c -0.798455,-2.61679 -2.05784,-4.62436 -3.138672,-6.09375 z" />
    </pattern>
    <clipPath
       clipPathUnits="userSpaceOnUse"
       id="clipPath25">
      <rect
         style="fill:#ff0000;stroke:none;stroke-width:3;stroke-linecap:square;stroke-linejoin:miter;paint-order:stroke markers fill;stop-color:#000000"
         id="rect25-8"
         width="78"
         height="45.033199"
         x="763.61322"
         y="452.82422" />
    </clipPath>
    <clipPath
       clipPathUnits="userSpaceOnUse"
       id="clipPath33">
      <rect
         style="fill:#000000;stroke:none;stroke-width:0.999995;stroke-linecap:butt;stroke-linejoin:bevel;paint-order:stroke markers fill;stop-color:#000000"
         id="rect33"
         width="46.19186"
         height="80.006783"
         x="74.999985"
         y="399.99661" />
    </clipPath>
    <clipPath
       clipPathUnits="userSpaceOnUse"
       id="clipPath59">
      <rect
         style="fill:none;stroke:#000000;stroke-width:0.999999;stroke-linecap:butt;stroke-linejoin:bevel;paint-order:stroke markers fill;stop-color:#000000"
         id="rect59"
         width="44.999748"
         height="77.937294"
         x="251.53429"
         y="222.73541" />
    </clipPath>
    <clipPath
       clipPathUnits="userSpaceOnUse"
       id="clipPath58">
      <rect
         style="fill:none;stroke:#000000;stroke-linecap:butt;stroke-linejoin:bevel;paint-order:stroke markers fill;stop-color:#000000"
         id="rect58"
         width="45.034248"
         height="38.955639"
         x="262.48285"
         y="121.00073" />
    </clipPath>
    <clipPath
       clipPathUnits="userSpaceOnUse"
       id="clipPath56">
      <rect
         style="fill:none;stroke:#000000;stroke-width:0.999999;stroke-linecap:butt;stroke-linejoin:bevel;paint-order:stroke markers fill;stop-color:#000000"
         id="rect56"
         width="44.999748"
         height="77.937294"
         x="251.53429"
         y="222.73541" />
    </clipPath>
    <clipPath
       clipPathUnits="userSpaceOnUse"
       id="clipPath27">
      <rect
         style="fill:none;stroke:#000000;stroke-width:0.999999;stroke-linecap:butt;stroke-linejoin:bevel;paint-order:stroke markers fill;stop-color:#000000"
         id="rect28-6"
         width="46.160622"
         height="39.922417"
         x="86.574379"
         y="420.06253" />
    </clipPath>
    <clipPath
       clipPathUnits="userSpaceOnUse"
       id="clipPath46">
      <rect
         style="fill:none;stroke:#000000;stroke-width:0.999999;stroke-linecap:butt;stroke-linejoin:bevel;paint-order:stroke markers fill;stop-color:#000000"
         id="rect46"
         width="44.999748"
         height="77.937294"
         x="251.53429"
         y="222.73541" />
    </clipPath>
    <clipPath
       clipPathUnits="userSpaceOnUse"
       id="clipPath43">
      <rect
         style="fill:none;stroke:#000000;stroke-linecap:butt;stroke-linejoin:bevel;paint-order:stroke markers fill;stop-color:#000000"
         id="rect43"
         width="45.034248"
         height="38.955639"
         x="262.48285"
         y="121.00073" />
    </clipPath>
    <clipPath
       clipPathUnits="userSpaceOnUse"
       id="clipPath15">
      <rect
         style="fill:none;stroke:#000000;stroke-linecap:butt;stroke-linejoin:bevel;paint-order:stroke markers fill;stop-color:#000000"
         id="rect15-7"
         width="45.034248"
         height="38.955639"
         x="262.48285"
         y="121.00073" />
    </clipPath>
    <clipPath
       clipPathUnits="userSpaceOnUse"
       id="clipPath24">
      <rect
         style="fill:none;stroke:#000000;stroke-width:0.999999;stroke-linecap:butt;stroke-linejoin:bevel;paint-order:stroke markers fill;stop-color:#000000"
         id="rect24"
         width="44.999748"
         height="77.937294"
         x="251.53429"
         y="222.73541" />
    </clipPath>
    <clipPath
       clipPathUnits="userSpaceOnUse"
       id="clipPath52">
      <path
         id="path52"
         style="stroke-width:0.1;stroke-linecap:square;paint-order:markers fill stroke;stop-color:#000000"
         d="m -880.82767,-187.29769 h 1640.84 v 73.28155 h -1640.84 z" />
    </clipPath>
    <clipPath
       clipPathUnits="userSpaceOnUse"
       id="clipPath5">
      <rect
         style="fill:#000000;stroke:#000000;stroke-width:0;stroke-linejoin:bevel;paint-order:stroke markers fill;stop-color:#000000"
         id="rect5-4"
         width="20"
         height="200"
         x="530"
         y="595" />
    </clipPath>
    <filter
       inkscape:collect="always"
       style="color-interpolation-filters:sRGB"
       id="filter68"
       x="-0.018953236"
       y="-0.01716243"
       width="1.0378397"
       height="1.0345529">
      <feGaussianBlur
         inkscape:collect="always"
         stdDeviation="0.38562017"
         id="feGaussianBlur68" />
    </filter>
  </defs>
  <g
     inkscape:label="Layer 1"
     inkscape:groupmode="layer"
     id="layer1"
     style="display:inline;fill:#ffffff;fill-opacity:1">
    <path
       style="font-size:375.61px;line-height:1.25;font-family:'Bell MT';-inkscape-font-specification:'Bell MT';letter-spacing:0px;word-spacing:0px;opacity:1;fill:#ffffff;stroke:#000000;stroke-width:1.0716;stroke-linecap:round;stroke-linejoin:round;stroke-dasharray:none;fill-opacity:1"
       d="M 70.944739,12.697923 Q 80.325021,16.754415 84.673745,28.484772 89.022469,40.21513 84.341901,51.038531 77.711096,66.371682 61.207584,78.291892 44.62606,90.39249 29.468293,93.259036 14.310525,96.125581 11.604675,94.955439 8.5380444,93.629278 10.176244,89.841087 q 0.624075,-1.443119 5.34838,-1.969601 10.506576,-1.023695 23.953142,-9.341 13.446564,-8.317306 18.6732,-20.403436 2.88635,-6.674432 -3.734442,-10.179961 -10.433353,-5.582519 -12.24204,-12.788437 -1.808686,-7.205917 0.453589,-12.437228 3.120378,-7.2156 10.847992,-10.725807 7.727613,-3.510206 17.468674,0.702306 z"
       id="text1"
       aria-label="," />
  </g>
  <g
     inkscape:label="Layer 1"
     inkscape:groupmode="layer"
     id="g21"
     style="display:inline;opacity:0.341">
    <path
       style="font-size:375.61px;line-height:1.25;font-family:'Bell MT';-inkscape-font-specification:'Bell MT';letter-spacing:0px;word-spacing:0px;opacity:0.40732265;mix-blend-mode:multiply;fill:url(#pattern68);stroke:#000000;stroke-width:1.0716;stroke-linecap:round;stroke-linejoin:round;stroke-dasharray:none;filter:url(#filter68)"
       d="M 70.944739,12.697923 Q 80.325021,16.754415 84.673745,28.484772 89.022469,40.21513 84.341901,51.038531 77.711096,66.371682 61.207584,78.291892 44.62606,90.39249 29.468293,93.259036 14.310525,96.125581 11.604675,94.955439 8.5380444,93.629278 10.176244,89.841087 q 0.624075,-1.443119 5.34838,-1.969601 10.506576,-1.023695 23.953142,-9.341 13.446564,-8.317306 18.6732,-20.403436 2.88635,-6.674432 -3.734442,-10.179961 -10.433353,-5.582519 -12.24204,-12.788437 -1.808686,-7.205917 0.453589,-12.437228 3.120378,-7.2156 10.847992,-10.725807 7.727613,-3.510206 17.468674,0.702306 z"
       id="path21"
       aria-label="," />
  </g>
</svg>
