<?xml version="1.0" encoding="UTF-8" standalone="no"?>
<!-- Created with Inkscape (http://www.inkscape.org/) -->

<svg
   width="71.474236mm"
   height="70.463882mm"
   viewBox="0 0 71.474235 70.463882"
   version="1.1"
   id="svg1"
   sodipodi:docname="fr_F.svg"
   inkscape:version="1.4.3 (0d15f75, 2025-12-25)"
   xmlns:inkscape="http://www.inkscape.org/namespaces/inkscape"
   xmlns:sodipodi="http://sodipodi.sourceforge.net/DTD/sodipodi-0.dtd"
   xmlns="http://www.w3.org/2000/svg"
   xmlns:svg="http://www.w3.org/2000/svg">
  <sodipodi:namedview
     id="namedview1"
     pagecolor="#ffffff"
     bordercolor="#000000"
     borderopacity="0.25"
     inkscape:showpageshadow="2"
     inkscape:pageopacity="0.0"
     inkscape:pagecheckerboard="0"
     inkscape:deskcolor="#d1d1d1"
     inkscape:document-units="mm"
     inkscape:zoom="2.4599503"
     inkscape:cx="275.20881"
     inkscape:cy="98.172713"
     inkscape:window-width="2004"
     inkscape:window-height="1629"
     inkscape:window-x="178"
     inkscape:window-y="29"
     inkscape:window-maximized="0"
     inkscape:current-layer="layer1" />
  <defs
     id="defs1" />
  <g
     id="layer1"
     transform="translate(-29.82822,-7.2851336)">
    <path
       style="font-size:96.3063px;line-height:1.25;font-family:'French Script MT';-inkscape-font-specification:'French Script MT';letter-spacing:0px;word-spacing:0px;fill:#ffffff;stroke:#000000;stroke-width:0.97514;stroke-linecap:round;stroke-linejoin:round"
       d="m 94.266147,14.517711 q -3.903038,3.432793 -9.545986,3.432793 -2.210154,0 -3.056596,-0.188098 -3.856014,3.009571 -3.856014,9.075739 0,4.890555 2.210154,9.404912 5.078653,-2.962547 8.464421,-2.962547 1.12859,0 2.821474,0.564295 l 0.09405,1.175614 q 0,0.658344 -0.705369,4.702456 -0.141073,0 -0.611319,0.141073 -0.423221,0.141074 -0.51727,0.141074 h -0.188098 q -0.329172,-1.457761 -1.504786,-2.351228 -1.175614,-0.893467 -2.445277,-0.893467 -2.398253,0 -4.655432,1.739909 2.210155,6.489389 2.586351,8.793593 0.423221,2.257179 0.423221,4.373284 0,9.969206 -6.959635,16.693718 -6.959634,6.724512 -17.210988,6.724512 -7.00666,0 -11.191845,-3.71494 -4.138162,-3.761965 -4.138162,-9.687059 0,-6.724512 5.313776,-11.473993 5.313775,-4.796505 12.320434,-4.796505 3.620891,0 6.066168,2.069081 2.492302,2.069081 2.492302,5.078652 0,3.80899 -3.526842,6.865586 -3.526842,3.056596 -8.605494,3.056596 h -1.034541 v -1.081565 q 8.276323,-1.457761 8.276323,-7.335831 0,-2.727424 -1.880983,-4.373284 -1.833957,-1.692884 -4.843529,-1.692884 -4.514358,0 -7.617979,3.19767 -3.103621,3.150646 -3.103621,8.088224 0,5.736997 4.044112,9.498961 4.091137,3.71494 10.20433,3.71494 6.865585,0 11.991262,-4.514357 5.172702,-4.514358 5.172702,-11.097796 0,-3.244695 -1.739909,-8.323347 l -2.022056,-5.831046 q -2.022056,1.504786 -3.19767,4.514358 L 71.083039,46.07119 q 1.786933,-3.056596 4.044112,-5.784021 -1.55181,-6.348315 -1.55181,-9.404911 0,-8.135249 6.254266,-13.402 -6.959635,-1.55181 -12.602582,-1.55181 -5.642947,0 -9.216813,3.056596 -3.526842,3.056596 -3.526842,7.570954 0,2.868498 1.739909,4.702456 1.739908,1.833958 3.856013,1.833958 1.598835,0 3.056597,-1.175614 1.504786,-1.175614 1.975031,-3.150646 h 0.940491 l 0.09405,1.316688 q 0,3.103621 -2.022056,5.407824 -2.022056,2.304204 -4.984603,2.304204 -3.291719,0 -5.595922,-2.539326 -2.304204,-2.586351 -2.304204,-6.583439 0,-6.959635 6.207242,-11.803164 6.207242,-4.890554 15.753227,-4.890554 4.514358,0 10.20433,1.269663 5.736996,1.269663 6.91261,1.269663 1.880982,0 3.291719,-1.363712 z"
       id="text1"
       aria-label="F" />
  </g>
</svg>
