<?xml version="1.0" encoding="UTF-8" standalone="no"?>
<!-- Created with Inkscape (http://www.inkscape.org/) -->

<svg
   width="71.474236mm"
   height="70.463882mm"
   viewBox="0 0 71.474235 70.463882"
   version="1.1"
   id="svg1"
   sodipodi:docname="question.svg"
   inkscape:version="1.4.3 (0d15f75, 2025-12-25)"
   xmlns:inkscape="http://www.inkscape.org/namespaces/inkscape"
   xmlns:sodipodi="http://sodipodi.sourceforge.net/DTD/sodipodi-0.dtd"
   xmlns="http://www.w3.org/2000/svg"
   xmlns:svg="http://www.w3.org/2000/svg">
  <sodipodi:namedview
     id="namedview1"
     pagecolor="#ffffff"
     bordercolor="#000000"
     borderopacity="0.25"
     inkscape:showpageshadow="2"
     inkscape:pageopacity="0.0"
     inkscape:pagecheckerboard="0"
     inkscape:deskcolor="#d1d1d1"
     inkscape:document-units="mm"
     inkscape:zoom="3.4788951"
     inkscape:cx="190.8652"
     inkscape:cy="117.13489"
     inkscape:window-width="3840"
     inkscape:window-height="2071"
     inkscape:window-x="-9"
     inkscape:window-y="-9"
     inkscape:window-maximized="1"
     inkscape:current-layer="layer1" />
  <defs
     id="defs1" />
  <g
     id="layer1"
     transform="translate(-29.82822,-7.2851336)">
    <path
       d="m 66.84599,22.109181 0.105616,1.372998 q 0,3.010034 -1.953882,4.911108 -1.901075,1.901074 -4.858301,1.901074 -3.062842,0 -4.963916,-2.165112 -1.848267,-2.165112 -1.848267,-5.280762 0,-5.439184 4.277417,-9.188525 4.277417,-3.8021489 11.30083,-3.8021489 6.495337,0 10.614332,3.4853029 4.171801,3.485303 4.171801,8.554834 0,3.590918 -1.848266,7.234644 -1.848267,3.643725 -8.343604,8.924487 -6.495337,5.280762 -8.026758,7.97395 -1.478613,2.693189 -1.478613,5.280762 0,2.00669 1.10896,3.485303 1.161768,1.478613 2.693188,1.478613 1.531421,0 3.221265,-2.059497 l 1.10896,0.633692 q -0.528076,2.42915 -2.21792,3.907763 -1.637036,1.425806 -3.643725,1.425806 -2.534766,0 -4.013379,-1.848267 -1.478614,-1.848266 -1.478614,-5.122339 0,-3.010034 1.531421,-6.178491 1.584229,-3.221265 6.65376,-8.343603 5.069531,-5.122339 6.759375,-7.815528 1.689844,-2.693188 1.689844,-6.600952 0,-5.069531 -3.221265,-8.237989 -3.221264,-3.221264 -8.132373,-3.221264 -4.013379,0 -6.759375,2.21792 -2.745996,2.165112 -2.745996,5.5448 0,2.376342 1.32019,3.854956 1.320191,1.425805 3.432495,1.425805 3.274073,0 4.752686,-3.643725 z m 3.432496,47.896509 -4.43584,5.280762 -4.43584,-5.597608 4.330224,-5.439184 z"
       id="text15"
       style="font-size:108.15px;line-height:1.25;font-family:'French Script MT';-inkscape-font-specification:'French Script MT';letter-spacing:0px;word-spacing:0px;fill:#f9f9f9;stroke:#1a1a1a;stroke-width:1.29602"
       aria-label="?" />
  </g>
</svg>
