<?xml version="1.0" encoding="UTF-8" standalone="no"?>
<!-- Created with Inkscape (http://www.inkscape.org/) -->

<svg
   width="71.474236mm"
   height="70.463882mm"
   viewBox="0 0 71.474235 70.463882"
   version="1.1"
   id="svg1"
   sodipodi:docname="fr_Q.svg"
   inkscape:version="1.4.3 (0d15f75, 2025-12-25)"
   xmlns:inkscape="http://www.inkscape.org/namespaces/inkscape"
   xmlns:sodipodi="http://sodipodi.sourceforge.net/DTD/sodipodi-0.dtd"
   xmlns="http://www.w3.org/2000/svg"
   xmlns:svg="http://www.w3.org/2000/svg">
  <sodipodi:namedview
     id="namedview1"
     pagecolor="#ffffff"
     bordercolor="#000000"
     borderopacity="0.25"
     inkscape:showpageshadow="2"
     inkscape:pageopacity="0.0"
     inkscape:pagecheckerboard="0"
     inkscape:deskcolor="#d1d1d1"
     inkscape:document-units="mm"
     inkscape:zoom="2.4599503"
     inkscape:cx="195.5324"
     inkscape:cy="151.83233"
     inkscape:window-width="2004"
     inkscape:window-height="1629"
     inkscape:window-x="178"
     inkscape:window-y="29"
     inkscape:window-maximized="0"
     inkscape:current-layer="layer1" />
  <defs
     id="defs1" />
  <g
     id="layer1"
     transform="translate(-29.82822,-7.2851336)">
    <path
       d="m 87.677085,66.725266 q -2.902627,7.740337 -5.206298,7.740337 -1.013616,0 -3.639802,-1.151836 -2.580112,-1.197909 -5.75918,-3.409434 -4.83771,4.330903 -11.794799,4.330903 -8.70788,0 -14.60528,-7.64819 -5.8974,-7.694264 -5.8974,-20.180166 0,-19.489063 14.651353,-32.159258 l 1.105763,1.013615 q -5.943474,5.851327 -8.615733,12.071241 -2.672259,6.17384 -2.672259,14.006324 0,16.955025 11.472285,25.386464 2.718333,-3.501581 7.924632,-3.501581 2.994773,0 5.943473,1.197909 2.9487,1.151836 3.778022,1.33613 4.008389,-4.515197 5.620959,-9.675422 1.658644,-5.160225 1.658644,-12.393754 0,-11.7948 -4.929858,-19.396917 -4.883784,-7.602117 -11.472286,-7.602117 -4.515197,0 -7.417823,3.685875 -2.902627,3.685875 -2.902627,9.537201 0,4.883784 2.027232,7.694264 2.027231,2.764406 5.344518,2.764406 2.395819,0 3.778022,-1.428276 1.428277,-1.428277 1.428277,-3.731949 0,-1.059689 -0.184294,-1.889011 l 1.105762,-0.506807 q 0.967543,2.211525 0.967543,4.284829 0,3.593728 -2.487966,5.943473 -2.441892,2.349746 -5.805253,2.349746 -3.824095,0 -6.404208,-3.317288 -2.580112,-3.363361 -2.580112,-8.8461 0,-8.707879 4.929857,-14.927793 4.929858,-6.219914 11.886947,-6.219914 7.417823,0 12.255534,7.786411 4.883785,7.786411 4.883785,19.489064 0,7.602117 -2.487966,14.88172 -2.487966,7.233529 -7.141383,12.393754 3.501582,1.013616 5.75918,1.013616 2.718333,0 4.929858,-1.151836 z m -17.185392,1.382203 q -4.054462,-2.902626 -6.680648,-2.902626 -2.994774,0 -5.390592,2.349745 2.810479,1.704717 6.726721,1.704717 2.902627,0 5.344519,-1.151836 z"
       id="text15"
       style="font-size:94.3584px;line-height:1.25;font-family:'French Script MT';-inkscape-font-specification:'French Script MT';letter-spacing:0px;word-spacing:0px;fill:#ffffff;stroke:#1a1a1a;stroke-width:1.13078"
       transform="scale(1.0158014,0.9844444)"
       aria-label="Q" />
  </g>
</svg>
