<?xml version="1.0" encoding="UTF-8" standalone="no"?>
<!-- Created with Inkscape (http://www.inkscape.org/) -->

<svg
   width="71.474236mm"
   height="70.463882mm"
   viewBox="0 0 71.474235 70.463882"
   version="1.1"
   id="svg1"
   sodipodi:docname="fr_R.svg"
   inkscape:version="1.4.3 (0d15f75, 2025-12-25)"
   xmlns:inkscape="http://www.inkscape.org/namespaces/inkscape"
   xmlns:sodipodi="http://sodipodi.sourceforge.net/DTD/sodipodi-0.dtd"
   xmlns="http://www.w3.org/2000/svg"
   xmlns:svg="http://www.w3.org/2000/svg">
  <sodipodi:namedview
     id="namedview1"
     pagecolor="#ffffff"
     bordercolor="#000000"
     borderopacity="0.25"
     inkscape:showpageshadow="2"
     inkscape:pageopacity="0.0"
     inkscape:pagecheckerboard="0"
     inkscape:deskcolor="#d1d1d1"
     inkscape:document-units="mm"
     inkscape:zoom="3.4788951"
     inkscape:cx="98.307075"
     inkscape:cy="120.87171"
     inkscape:window-width="2444"
     inkscape:window-height="1737"
     inkscape:window-x="96"
     inkscape:window-y="96"
     inkscape:window-maximized="0"
     inkscape:current-layer="svg1" />
  <defs
     id="defs1" />
  <g
     id="layer1"
     transform="translate(-29.82822,-7.2851336)">
    <text
       xml:space="preserve"
       style="font-style:normal;font-variant:normal;font-weight:normal;font-stretch:normal;font-size:105.833px;line-height:1.25;font-family:'French Script MT';-inkscape-font-specification:'French Script MT';letter-spacing:0px;word-spacing:0px;writing-mode:lr-tb;direction:ltr;opacity:1;fill:#ffffff;stroke:#000000;stroke-width:1.25;stroke-linecap:round;stroke-linejoin:round"
       x="89.606537"
       y="55.655376"
       id="text2"><tspan
         sodipodi:role="line"
         id="tspan1"
         style="stroke-width:1.25"
         x="89.606537"
         y="55.655376" /></text>
  </g>
  <text
     xml:space="preserve"
     style="font-style:normal;font-variant:normal;font-weight:normal;font-stretch:normal;font-size:105.833px;line-height:1.25;font-family:'French Script MT';-inkscape-font-specification:'French Script MT';letter-spacing:0px;word-spacing:0px;writing-mode:lr-tb;direction:ltr;opacity:0.494279;fill:#ffffff;stroke:#000000;stroke-width:1.25;stroke-linecap:round;stroke-linejoin:round"
     x="61.907829"
     y="47.609703"
     id="text4"><tspan
       sodipodi:role="line"
       id="tspan3"
       style="stroke-width:1.25"
       x="61.907829"
       y="47.609703" /></text>
  <path
     d="m 68.82666,55.990494 q -5.764268,9.267171 -12.903093,9.267171 -2.305708,0 -4.389713,-1.241535 -2.084005,-1.241535 -3.680264,-3.458561 -1.596259,-2.261367 -2.084004,-4.345372 l -1.463238,-6.69542 q -1.68494,-7.493549 -2.749113,-9.976619 -1.019832,-2.52741 -3.325539,-2.882134 v -1.019832 q 3.813285,-0.665108 6.562398,-4.877458 2.793453,-4.212351 2.793453,-9.089809 0,-6.296355 -4.434053,-10.242662 -4.389712,-3.9463068 -11.395515,-3.9463068 -8.956787,0 -15.91825,6.1633338 -6.9614631,6.118993 -6.9614631,14.809736 0,4.611415 2.2170261,7.493549 2.217027,2.882135 5.498226,2.882135 3.547242,0 5.985971,-3.103837 l 0.931151,0.709448 q -3.148177,6.385036 -9.533213,6.385036 -4.2123506,0 -6.7841012,-3.015156 -2.5717507,-3.015155 -2.5717507,-8.158657 0,-10.287002 8.6907439,-18.44566 8.735084,-8.1586569 21.194772,-8.1586569 8.513382,0 13.39084,3.9019665 4.921799,3.9019664 4.921799,10.7304084 0,5.409544 -3.148178,10.020959 -3.148177,4.611415 -8.38036,6.296355 1.950983,0.709448 3.857626,2.882134 1.906643,2.128346 2.48307,3.901967 l 2.039664,6.518058 q 2.48307,8.069976 3.857626,10.375683 1.418897,2.305708 4.655756,2.305708 4.389712,0 9.26717,-7.094485 z M 39.029825,12.935841 q -4.345372,4.16801 -4.345372,10.730408 0,2.571751 1.064173,9.178489 1.108513,6.606739 1.108513,11.040792 0,9.17849 -5.05482,15.386163 -5.01048,6.163334 -12.282326,6.163334 -4.966139,0 -8.646403,-3.059497 -3.6802642,-3.059496 -4.4340532,-8.557722 l 6.5180572,-1.72928 0.399065,0.443405 q -1.108513,1.817962 -1.108513,3.901967 0,2.749112 2.172686,4.921798 2.172686,2.172686 5.631247,2.172686 5.05482,0 8.291679,-4.034988 3.236858,-4.034988 3.236858,-10.0653 0,-4.966139 -0.798129,-10.553046 -0.753789,-5.631247 -0.753789,-7.050144 0,-6.961463 1.596259,-11.306834 1.596259,-4.345372 6.606739,-8.779425 z"
     id="text5"
     style="font-size:90.8094px;line-height:1.25;font-family:'French Script MT';-inkscape-font-specification:'French Script MT';letter-spacing:0px;word-spacing:0px;fill:#ffffff;stroke:#000000;stroke-width:1.07255;stroke-linecap:round;stroke-linejoin:round"
     aria-label="R" />
</svg>
