<?xml version="1.0" encoding="UTF-8" standalone="no"?>
<!-- Created with Inkscape (http://www.inkscape.org/) -->

<svg
   width="71.474236mm"
   height="70.463882mm"
   viewBox="0 0 71.474235 70.463882"
   version="1.1"
   id="svg1"
   sodipodi:docname="fr_S.svg"
   inkscape:version="1.4.3 (0d15f75, 2025-12-25)"
   xmlns:inkscape="http://www.inkscape.org/namespaces/inkscape"
   xmlns:sodipodi="http://sodipodi.sourceforge.net/DTD/sodipodi-0.dtd"
   xmlns="http://www.w3.org/2000/svg"
   xmlns:svg="http://www.w3.org/2000/svg">
  <sodipodi:namedview
     id="namedview1"
     pagecolor="#ffffff"
     bordercolor="#000000"
     borderopacity="0.25"
     inkscape:showpageshadow="2"
     inkscape:pageopacity="0.0"
     inkscape:pagecheckerboard="0"
     inkscape:deskcolor="#d1d1d1"
     inkscape:document-units="mm"
     inkscape:zoom="0.86972378"
     inkscape:cx="1368.2505"
     inkscape:cy="-10.923008"
     inkscape:window-width="3840"
     inkscape:window-height="2071"
     inkscape:window-x="-9"
     inkscape:window-y="-9"
     inkscape:window-maximized="1"
     inkscape:current-layer="svg1" />
  <defs
     id="defs1" />
  <g
     id="layer1"
     transform="translate(-29.82822,-7.2851336)">
    <text
       xml:space="preserve"
       style="font-style:normal;font-variant:normal;font-weight:normal;font-stretch:normal;font-size:105.833px;line-height:1.25;font-family:'French Script MT';-inkscape-font-specification:'French Script MT';letter-spacing:0px;word-spacing:0px;writing-mode:lr-tb;direction:ltr;opacity:1;fill:#ffffff;stroke:#000000;stroke-width:1.25;stroke-linecap:round;stroke-linejoin:round"
       x="89.606537"
       y="55.655376"
       id="text2"><tspan
         sodipodi:role="line"
         id="tspan1"
         style="stroke-width:1.25"
         x="89.606537"
         y="55.655376" /></text>
  </g>
  <path
     d="m 60.553143,6.2262791 q -1.55394,2.5751007 -4.972608,4.3954309 -3.418668,1.775931 -6.570947,1.775931 -3.10788,0 -8.746463,-1.82033 -5.594184,-1.8203294 -7.236921,-1.8203294 -3.063482,0 -5.283396,2.3531094 -2.175517,2.353109 -2.175517,5.682981 0,3.241075 1.997923,5.327795 2.042322,2.042321 5.017007,3.241075 3.019084,1.154355 9.368039,2.930287 6.348956,1.731533 10.211607,3.418668 3.862651,1.642737 6.526548,4.972608 2.708296,3.285474 2.708296,8.657667 0,8.03609 -6.615345,14.296249 -6.570947,6.260159 -16.294172,6.260159 -8.879658,0 -14.740232,-4.661821 -5.816176,-4.66182 -5.816176,-11.099572 0,-4.750617 3.418668,-7.902895 3.418668,-3.196677 8.83526,-3.196677 5.682981,0 9.59003,3.152278 3.951448,3.107881 3.951448,7.414515 0,2.930287 -2.042322,4.839413 -1.997923,1.864728 -4.839413,1.864728 -4.706219,0 -7.01493,-4.351032 l 1.109957,-0.621576 q 1.687135,1.731533 3.729457,1.731533 2.175516,0 3.596261,-1.509542 1.465144,-1.55394 1.465144,-3.862651 0,-2.885889 -2.441906,-4.795015 -2.397508,-1.953525 -5.816176,-1.953525 -3.995846,0 -6.659743,2.930287 -2.619499,2.930287 -2.619499,7.01493 0,5.372193 4.706218,9.234844 4.750617,3.862651 11.94314,3.862651 7.680904,0 12.786707,-4.795015 5.105803,-4.839413 5.105803,-11.321564 0,-4.439829 -2.397507,-7.192523 -2.353109,-2.752693 -5.682981,-4.12904 -3.285474,-1.376347 -9.190446,-3.063482 -5.904972,-1.687135 -9.234844,-3.063482 -3.285474,-1.376347 -5.549786,-3.995846 -2.219915,-2.619499 -2.219915,-6.837337 0,-5.771777 4.573024,-9.9008184 4.573024,-4.1734392 10.611191,-4.1734392 2.797092,0 7.991692,1.4651436 5.238998,1.4207452 7.547709,1.4207452 3.773855,0 6.570947,-2.9746853 z"
     id="text3"
     style="font-size:90.9277px;line-height:1.25;font-family:'French Script MT';-inkscape-font-specification:'French Script MT';letter-spacing:0px;word-spacing:0px;fill:#ffffff;stroke:#000000;stroke-width:1.07395;stroke-linecap:round;stroke-linejoin:round"
     aria-label="S" />
</svg>
