<?xml version="1.0" encoding="UTF-8" standalone="no"?>
<!-- Created with Inkscape (http://www.inkscape.org/) -->

<svg
   width="71.474236mm"
   height="70.463882mm"
   viewBox="0 0 71.474235 70.463882"
   version="1.1"
   id="svg1"
   sodipodi:docname="fr_Z.svg"
   inkscape:version="1.4.3 (0d15f75, 2025-12-25)"
   xmlns:inkscape="http://www.inkscape.org/namespaces/inkscape"
   xmlns:sodipodi="http://sodipodi.sourceforge.net/DTD/sodipodi-0.dtd"
   xmlns="http://www.w3.org/2000/svg"
   xmlns:svg="http://www.w3.org/2000/svg">
  <sodipodi:namedview
     id="namedview1"
     pagecolor="#ffffff"
     bordercolor="#000000"
     borderopacity="0.25"
     inkscape:showpageshadow="2"
     inkscape:pageopacity="0.0"
     inkscape:pagecheckerboard="0"
     inkscape:deskcolor="#d1d1d1"
     inkscape:document-units="mm"
     inkscape:zoom="1.7394476"
     inkscape:cx="125.32715"
     inkscape:cy="75.02382"
     inkscape:window-width="3840"
     inkscape:window-height="2071"
     inkscape:window-x="-9"
     inkscape:window-y="-9"
     inkscape:window-maximized="1"
     inkscape:current-layer="layer1" />
  <defs
     id="defs1" />
  <g
     id="layer1"
     transform="translate(-29.82822,-7.2851336)">
    <path
       d="m 84.985292,50.129707 q -2.421415,3.926619 -5.628154,5.824485 -1.701535,8.671283 -6.740696,13.939497 -5.006439,5.300936 -8.933058,5.300936 -1.897866,0 -3.272183,-1.177986 -1.341594,-1.177986 -1.341594,-3.04313 0,-2.87952 2.617746,-5.726319 2.617746,-2.814077 14.070384,-8.998502 0.261775,-1.766978 0.261775,-3.239461 0,-5.300935 -2.944964,-7.885959 -4.744665,3.730288 -7.853238,3.730288 -2.421415,0 -2.421415,-1.996032 0,-1.7997 2.454137,-3.272182 2.486858,-1.505204 5.595432,-1.505204 1.276151,0 2.814077,0.556271 5.431822,-5.889929 5.431822,-13.939498 0,-6.511643 -3.435791,-10.634593 -3.435792,-4.12295 -8.278622,-4.12295 -4.84283,0 -8.573118,4.221116 -3.697566,4.221115 -3.697566,9.587495 0,4.188393 2.094197,7.100636 2.094196,2.87952 5.071882,2.87952 2.355972,0 4.28656,-1.865144 1.930587,-1.897866 1.930587,-4.548334 0,-1.865144 -0.981655,-3.043129 -0.981654,-1.177986 -2.421415,-1.177986 -1.505204,0 -2.225084,1.276151 l -0.654436,-0.490827 q 1.014376,-3.533957 4.024784,-3.533957 1.897866,0 3.206739,1.570647 1.341595,1.537926 1.341595,3.926619 0,3.76301 -3.010408,6.904305 -3.010408,3.141296 -6.904305,3.141296 -3.76301,0 -6.249869,-2.781355 -2.454136,-2.781356 -2.454136,-7.395133 0,-7.231523 5.235492,-12.401572 5.268213,-5.170048 12.107075,-5.170048 5.693597,0 9.456607,3.76301 3.76301,3.76301 3.76301,9.849269 0,4.515612 -1.832422,8.638562 -1.832422,4.12295 -5.955372,8.769449 4.679221,2.944964 4.679221,9.652938 l -0.06544,1.210708 q 2.15964,-1.505204 4.352003,-4.679221 z M 71.602066,44.370666 q -0.981655,-0.458106 -2.225085,-0.458106 -1.603369,0 -2.748633,0.654437 -1.145264,0.621714 -1.145264,1.407038 0,0.752602 1.079821,0.752602 0.981654,0 2.454136,-0.621715 1.505204,-0.621714 2.585025,-1.734256 z m 3.926619,13.743166 q -7.002471,3.697566 -10.274653,6.707974 -3.239461,3.04313 -3.239461,6.020816 0,1.112542 0.687158,1.832422 0.687159,0.71988 1.799701,0.71988 3.108573,0 6.478921,-4.319281 3.40307,-4.286559 4.548334,-10.961811 z"
       id="text1"
       style="font-size:67.0143px;line-height:1.25;font-family:'French Script MT';-inkscape-font-specification:'French Script MT';letter-spacing:0px;word-spacing:0px;fill:#ffffff;stroke:#000000;stroke-width:0.79151;stroke-linecap:round;stroke-linejoin:round"
       aria-label="Z" />
  </g>
</svg>
